<svg width="63" height="63" viewBox="0 0 63 63" fill="none" xmlns="http://www.w3.org/2000/svg">
<circle cx="31.5" cy="31.5" r="31.5" fill="#141B34"/>
<g clip-path="url(#clip0_3_139)">
<path fill-rule="evenodd" clip-rule="evenodd" d="M20.1413 27.3503C18.2673 27.3503 17.8762 27.7181 17.8762 29.4799V32.6744C17.8762 34.4364 18.2673 34.8041 20.1413 34.8041H24.6716V47.5819C24.6716 49.3437 25.0627 49.7115 26.9368 49.7115H31.4671C33.3412 49.7115 33.7322 49.3437 33.7322 47.5819V34.8041H38.819C40.2404 34.8041 40.6067 34.5443 40.9971 33.2596L41.9679 30.0651C42.6366 27.8642 42.2245 27.3503 39.7898 27.3503H33.7322V22.0263C33.7322 20.8502 34.7463 19.8967 35.9973 19.8967H42.4444C44.3183 19.8967 44.7095 19.529 44.7095 17.7671V13.5078C44.7095 11.7459 44.3183 11.3782 42.4444 11.3782H35.9973C29.7422 11.3782 24.6716 16.1455 24.6716 22.0263V27.3503H20.1413Z" fill="#FFF8F8" stroke="#141B34" stroke-width="1.5" stroke-linejoin="round"/>
</g>
<defs>
<clipPath id="clip0_3_139">
<rect width="46" height="46" fill="white" transform="translate(4.88794 3.80176)"/>
</clipPath>
</defs>
</svg>
