<svg width="63" height="63" viewBox="0 0 63 63" fill="none" xmlns="http://www.w3.org/2000/svg">
<circle cx="31.5" cy="31.5" r="31.5" fill="#141B34"/>
<path d="M13.7917 32C13.7917 23.4165 13.7917 19.1247 16.4582 16.4582C19.1248 13.7916 23.4165 13.7916 32 13.7916C40.5834 13.7916 44.8752 13.7916 47.5419 16.4582C50.2083 19.1247 50.2083 23.4165 50.2083 32C50.2083 40.5834 50.2083 44.8752 47.5419 47.5418C44.8752 50.2083 40.5834 50.2083 32 50.2083C23.4165 50.2083 19.1248 50.2083 16.4582 47.5418C13.7917 44.8752 13.7917 40.5834 13.7917 32Z" stroke="white" stroke-width="3" stroke-linejoin="round"/>
<path d="M40.625 32C40.625 36.7635 36.7635 40.625 32 40.625C27.2365 40.625 23.375 36.7635 23.375 32C23.375 27.2365 27.2365 23.375 32 23.375C36.7635 23.375 40.625 27.2365 40.625 32Z" stroke="white" stroke-width="3"/>
<path d="M42.5566 21.4584H42.5394" stroke="white" stroke-width="3" stroke-linecap="round" stroke-linejoin="round"/>
</svg>
