<svg width="86" height="68" viewBox="0 0 86 68" fill="none" xmlns="http://www.w3.org/2000/svg">
<circle cx="29" cy="29" r="29" fill="#F25D07"/>
<path d="M29.3 40.21C27.84 40.21 26.52 39.96 25.34 39.46C24.18 38.96 23.26 38.24 22.58 37.3C21.9 36.36 21.55 35.25 21.53 33.97H26.03C26.09 34.83 26.39 35.51 26.93 36.01C27.49 36.51 28.25 36.76 29.21 36.76C30.19 36.76 30.96 36.53 31.52 36.07C32.08 35.59 32.36 34.97 32.36 34.21C32.36 33.59 32.17 33.08 31.79 32.68C31.41 32.28 30.93 31.97 30.35 31.75C29.79 31.51 29.01 31.25 28.01 30.97C26.65 30.57 25.54 30.18 24.68 29.8C23.84 29.4 23.11 28.81 22.49 28.03C21.89 27.23 21.59 26.17 21.59 24.85C21.59 23.61 21.9 22.53 22.52 21.61C23.14 20.69 24.01 19.99 25.13 19.51C26.25 19.01 27.53 18.76 28.97 18.76C31.13 18.76 32.88 19.29 34.22 20.35C35.58 21.39 36.33 22.85 36.47 24.73H31.85C31.81 24.01 31.5 23.42 30.92 22.96C30.36 22.48 29.61 22.24 28.67 22.24C27.85 22.24 27.19 22.45 26.69 22.87C26.21 23.29 25.97 23.9 25.97 24.7C25.97 25.26 26.15 25.73 26.51 26.11C26.89 26.47 27.35 26.77 27.89 27.01C28.45 27.23 29.23 27.49 30.23 27.79C31.59 28.19 32.7 28.59 33.56 28.99C34.42 29.39 35.16 29.99 35.78 30.79C36.4 31.59 36.71 32.64 36.71 33.94C36.71 35.06 36.42 36.1 35.84 37.06C35.26 38.02 34.41 38.79 33.29 39.37C32.17 39.93 30.84 40.21 29.3 40.21ZM56.0413 23.38V40H51.8113V37.9C51.2713 38.62 50.5613 39.19 49.6813 39.61C48.8213 40.01 47.8813 40.21 46.8613 40.21C45.5613 40.21 44.4113 39.94 43.4113 39.4C42.4113 38.84 41.6213 38.03 41.0413 36.97C40.4813 35.89 40.2013 34.61 40.2013 33.13V23.38H44.4013V32.53C44.4013 33.85 44.7313 34.87 45.3913 35.59C46.0513 36.29 46.9513 36.64 48.0913 36.64C49.2513 36.64 50.1613 36.29 50.8213 35.59C51.4813 34.87 51.8113 33.85 51.8113 32.53V23.38H56.0413ZM69.3952 23.14C71.3752 23.14 72.9752 23.77 74.1952 25.03C75.4152 26.27 76.0252 28.01 76.0252 30.25V40H71.8252V30.82C71.8252 29.5 71.4952 28.49 70.8352 27.79C70.1752 27.07 69.2752 26.71 68.1352 26.71C66.9752 26.71 66.0552 27.07 65.3752 27.79C64.7152 28.49 64.3852 29.5 64.3852 30.82V40H60.1852V23.38H64.3852V25.45C64.9452 24.73 65.6552 24.17 66.5152 23.77C67.3952 23.35 68.3552 23.14 69.3952 23.14Z" fill="white"/>
<path d="M28.45 58.175C27.3 58.175 26.2667 57.975 25.35 57.575C24.45 57.1583 23.7417 56.5917 23.225 55.875C22.7083 55.1417 22.4417 54.3 22.425 53.35H24.85C24.9333 54.1667 25.2667 54.8583 25.85 55.425C26.45 55.975 27.3167 56.25 28.45 56.25C29.5333 56.25 30.3833 55.9833 31 55.45C31.6333 54.9 31.95 54.2 31.95 53.35C31.95 52.6833 31.7667 52.1417 31.4 51.725C31.0333 51.3083 30.575 50.9917 30.025 50.775C29.475 50.5583 28.7333 50.325 27.8 50.075C26.65 49.775 25.725 49.475 25.025 49.175C24.3417 48.875 23.75 48.4083 23.25 47.775C22.7667 47.125 22.525 46.2583 22.525 45.175C22.525 44.225 22.7667 43.3833 23.25 42.65C23.7333 41.9167 24.4083 41.35 25.275 40.95C26.1583 40.55 27.1667 40.35 28.3 40.35C29.9333 40.35 31.2667 40.7583 32.3 41.575C33.35 42.3917 33.9417 43.475 34.075 44.825H31.575C31.4917 44.1583 31.1417 43.575 30.525 43.075C29.9083 42.5583 29.0917 42.3 28.075 42.3C27.125 42.3 26.35 42.55 25.75 43.05C25.15 43.5333 24.85 44.2167 24.85 45.1C24.85 45.7333 25.025 46.25 25.375 46.65C25.7417 47.05 26.1833 47.3583 26.7 47.575C27.2333 47.775 27.975 48.0083 28.925 48.275C30.075 48.5917 31 48.9083 31.7 49.225C32.4 49.525 33 50 33.5 50.65C34 51.2833 34.25 52.15 34.25 53.25C34.25 54.1 34.025 54.9 33.575 55.65C33.125 56.4 32.4583 57.0083 31.575 57.475C30.6917 57.9417 29.65 58.175 28.45 58.175ZM40.3729 46.175V54.25C40.3729 54.9167 40.5145 55.3917 40.7979 55.675C41.0812 55.9417 41.5729 56.075 42.2729 56.075H43.9479V58H41.8979C40.6312 58 39.6812 57.7083 39.0479 57.125C38.4145 56.5417 38.0979 55.5833 38.0979 54.25V46.175H36.3229V44.3H38.0979V40.85H40.3729V44.3H43.9479V46.175H40.3729ZM52.6793 58.225C51.396 58.225 50.2293 57.9333 49.1793 57.35C48.146 56.7667 47.3293 55.9417 46.7293 54.875C46.146 53.7917 45.8543 52.5417 45.8543 51.125C45.8543 49.725 46.1543 48.4917 46.7543 47.425C47.371 46.3417 48.2043 45.5167 49.2543 44.95C50.3043 44.3667 51.4793 44.075 52.7793 44.075C54.0793 44.075 55.2543 44.3667 56.3043 44.95C57.3543 45.5167 58.1793 46.3333 58.7793 47.4C59.396 48.4667 59.7043 49.7083 59.7043 51.125C59.7043 52.5417 59.3876 53.7917 58.7543 54.875C58.1376 55.9417 57.296 56.7667 56.2293 57.35C55.1626 57.9333 53.9793 58.225 52.6793 58.225ZM52.6793 56.225C53.496 56.225 54.2626 56.0333 54.9793 55.65C55.696 55.2667 56.271 54.6917 56.7043 53.925C57.1543 53.1583 57.3793 52.225 57.3793 51.125C57.3793 50.025 57.1626 49.0917 56.7293 48.325C56.296 47.5583 55.7293 46.9917 55.0293 46.625C54.3293 46.2417 53.571 46.05 52.7543 46.05C51.921 46.05 51.1543 46.2417 50.4543 46.625C49.771 46.9917 49.221 47.5583 48.8043 48.325C48.3876 49.0917 48.1793 50.025 48.1793 51.125C48.1793 52.2417 48.3793 53.1833 48.7793 53.95C49.196 54.7167 49.746 55.2917 50.4293 55.675C51.1126 56.0417 51.8626 56.225 52.6793 56.225ZM64.9705 46.525C65.3705 45.7417 65.9372 45.1333 66.6705 44.7C67.4205 44.2667 68.3288 44.05 69.3955 44.05V46.4H68.7955C66.2455 46.4 64.9705 47.7833 64.9705 50.55V58H62.6955V44.3H64.9705V46.525ZM84.5217 50.625C84.5217 51.0583 84.4967 51.5167 84.4467 52H73.4967C73.58 53.35 74.0383 54.4083 74.8717 55.175C75.7217 55.925 76.7467 56.3 77.9467 56.3C78.93 56.3 79.7467 56.075 80.3967 55.625C81.0633 55.1583 81.53 54.5417 81.7967 53.775H84.2467C83.88 55.0917 83.1467 56.1667 82.0467 57C80.9467 57.8167 79.58 58.225 77.9467 58.225C76.6467 58.225 75.48 57.9333 74.4467 57.35C73.43 56.7667 72.63 55.9417 72.0467 54.875C71.4633 53.7917 71.1717 52.5417 71.1717 51.125C71.1717 49.7083 71.455 48.4667 72.0217 47.4C72.5883 46.3333 73.38 45.5167 74.3967 44.95C75.43 44.3667 76.6133 44.075 77.9467 44.075C79.2467 44.075 80.3967 44.3583 81.3967 44.925C82.3967 45.4917 83.1633 46.275 83.6967 47.275C84.2467 48.2583 84.5217 49.375 84.5217 50.625ZM82.1717 50.15C82.1717 49.2833 81.98 48.5417 81.5967 47.925C81.2133 47.2917 80.6883 46.8167 80.0217 46.5C79.3717 46.1667 78.6467 46 77.8467 46C76.6967 46 75.7133 46.3667 74.8967 47.1C74.0967 47.8333 73.6383 48.85 73.5217 50.15H82.1717Z" fill="#FFF0F0"/>
</svg>
