<svg width="86" height="68" viewBox="0 0 86 68" fill="none" xmlns="http://www.w3.org/2000/svg">
<path d="M29 58C45.0163 58 58 45.0163 58 29C58 12.9837 45.0163 0 29 0C12.9837 0 0 12.9837 0 29C0 45.0163 12.9837 58 29 58Z" fill="#F2A71B"/>
<path d="M29.2998 40.21C27.8398 40.21 26.5198 39.96 25.3398 39.46C24.1798 38.96 23.2598 38.24 22.5798 37.3C21.8998 36.36 21.5498 35.25 21.5298 33.97H26.0298C26.0898 34.83 26.3898 35.51 26.9298 36.01C27.4898 36.51 28.2498 36.76 29.2098 36.76C30.1898 36.76 30.9598 36.53 31.5198 36.07C32.0798 35.59 32.3598 34.97 32.3598 34.21C32.3598 33.59 32.1698 33.08 31.7898 32.68C31.4098 32.28 30.9298 31.97 30.3498 31.75C29.7898 31.51 29.0098 31.25 28.0098 30.97C26.6498 30.57 25.5398 30.18 24.6798 29.8C23.8398 29.4 23.1098 28.81 22.4898 28.03C21.8898 27.23 21.5898 26.17 21.5898 24.85C21.5898 23.61 21.8998 22.53 22.5198 21.61C23.1398 20.69 24.0098 19.99 25.1298 19.51C26.2498 19.01 27.5298 18.76 28.9698 18.76C31.1298 18.76 32.8798 19.29 34.2198 20.35C35.5798 21.39 36.3298 22.85 36.4698 24.73H31.8498C31.8098 24.01 31.4998 23.42 30.9198 22.96C30.3598 22.48 29.6098 22.24 28.6698 22.24C27.8498 22.24 27.1898 22.45 26.6898 22.87C26.2098 23.29 25.9698 23.9 25.9698 24.7C25.9698 25.26 26.1498 25.73 26.5098 26.11C26.8898 26.47 27.3498 26.77 27.8898 27.01C28.4498 27.23 29.2298 27.49 30.2298 27.79C31.5898 28.19 32.6998 28.59 33.5598 28.99C34.4198 29.39 35.1598 29.99 35.7798 30.79C36.3998 31.59 36.7098 32.64 36.7098 33.94C36.7098 35.06 36.4198 36.1 35.8398 37.06C35.2598 38.02 34.4098 38.79 33.2898 39.37C32.1698 39.93 30.8398 40.21 29.2998 40.21ZM56.0411 23.38V40H51.8111V37.9C51.2711 38.62 50.5611 39.19 49.6811 39.61C48.8211 40.01 47.8811 40.21 46.8611 40.21C45.5611 40.21 44.4111 39.94 43.4111 39.4C42.4111 38.84 41.6211 38.03 41.0411 36.97C40.4811 35.89 40.2011 34.61 40.2011 33.13V23.38H44.4011V32.53C44.4011 33.85 44.7311 34.87 45.3911 35.59C46.0511 36.29 46.9511 36.64 48.0911 36.64C49.2511 36.64 50.1611 36.29 50.8211 35.59C51.4811 34.87 51.8111 33.85 51.8111 32.53V23.38H56.0411ZM69.395 23.14C71.375 23.14 72.975 23.77 74.195 25.03C75.415 26.27 76.025 28.01 76.025 30.25V40H71.825V30.82C71.825 29.5 71.495 28.49 70.835 27.79C70.175 27.07 69.275 26.71 68.135 26.71C66.975 26.71 66.055 27.07 65.375 27.79C64.715 28.49 64.385 29.5 64.385 30.82V40H60.185V23.38H64.385V25.45C64.945 24.73 65.655 24.17 66.515 23.77C67.395 23.35 68.355 23.14 69.395 23.14Z" fill="white"/>
<path d="M28.4498 58.175C27.2998 58.175 26.2665 57.975 25.3498 57.575C24.4498 57.1583 23.7415 56.5917 23.2248 55.875C22.7081 55.1417 22.4415 54.3 22.4248 53.35H24.8498C24.9331 54.1667 25.2665 54.8583 25.8498 55.425C26.4498 55.975 27.3165 56.25 28.4498 56.25C29.5331 56.25 30.3831 55.9833 30.9998 55.45C31.6331 54.9 31.9498 54.2 31.9498 53.35C31.9498 52.6833 31.7665 52.1417 31.3998 51.725C31.0331 51.3083 30.5748 50.9917 30.0248 50.775C29.4748 50.5583 28.7331 50.325 27.7998 50.075C26.6498 49.775 25.7248 49.475 25.0248 49.175C24.3415 48.875 23.7498 48.4083 23.2498 47.775C22.7665 47.125 22.5248 46.2583 22.5248 45.175C22.5248 44.225 22.7665 43.3833 23.2498 42.65C23.7331 41.9167 24.4081 41.35 25.2748 40.95C26.1581 40.55 27.1665 40.35 28.2998 40.35C29.9331 40.35 31.2665 40.7583 32.2998 41.575C33.3498 42.3917 33.9415 43.475 34.0748 44.825H31.5748C31.4915 44.1583 31.1415 43.575 30.5248 43.075C29.9081 42.5583 29.0915 42.3 28.0748 42.3C27.1248 42.3 26.3498 42.55 25.7498 43.05C25.1498 43.5333 24.8498 44.2167 24.8498 45.1C24.8498 45.7333 25.0248 46.25 25.3748 46.65C25.7415 47.05 26.1831 47.3583 26.6998 47.575C27.2331 47.775 27.9748 48.0083 28.9248 48.275C30.0748 48.5917 30.9998 48.9083 31.6998 49.225C32.3998 49.525 32.9998 50 33.4998 50.65C33.9998 51.2833 34.2498 52.15 34.2498 53.25C34.2498 54.1 34.0248 54.9 33.5748 55.65C33.1248 56.4 32.4581 57.0083 31.5748 57.475C30.6915 57.9417 29.6498 58.175 28.4498 58.175ZM40.3727 46.175V54.25C40.3727 54.9167 40.5143 55.3917 40.7977 55.675C41.081 55.9417 41.5727 56.075 42.2727 56.075H43.9477V58H41.8977C40.631 58 39.681 57.7083 39.0477 57.125C38.4143 56.5417 38.0977 55.5833 38.0977 54.25V46.175H36.3227V44.3H38.0977V40.85H40.3727V44.3H43.9477V46.175H40.3727ZM52.6791 58.225C51.3958 58.225 50.2291 57.9333 49.1791 57.35C48.1458 56.7667 47.3291 55.9417 46.7291 54.875C46.1458 53.7917 45.8541 52.5417 45.8541 51.125C45.8541 49.725 46.1541 48.4917 46.7541 47.425C47.3708 46.3417 48.2041 45.5167 49.2541 44.95C50.3041 44.3667 51.4791 44.075 52.7791 44.075C54.0791 44.075 55.2541 44.3667 56.3041 44.95C57.3541 45.5167 58.1791 46.3333 58.7791 47.4C59.3958 48.4667 59.7041 49.7083 59.7041 51.125C59.7041 52.5417 59.3874 53.7917 58.7541 54.875C58.1374 55.9417 57.2958 56.7667 56.2291 57.35C55.1624 57.9333 53.9791 58.225 52.6791 58.225ZM52.6791 56.225C53.4958 56.225 54.2624 56.0333 54.9791 55.65C55.6958 55.2667 56.2708 54.6917 56.7041 53.925C57.1541 53.1583 57.3791 52.225 57.3791 51.125C57.3791 50.025 57.1624 49.0917 56.7291 48.325C56.2958 47.5583 55.7291 46.9917 55.0291 46.625C54.3291 46.2417 53.5708 46.05 52.7541 46.05C51.9208 46.05 51.1541 46.2417 50.4541 46.625C49.7708 46.9917 49.2208 47.5583 48.8041 48.325C48.3874 49.0917 48.1791 50.025 48.1791 51.125C48.1791 52.2417 48.3791 53.1833 48.7791 53.95C49.1958 54.7167 49.7458 55.2917 50.4291 55.675C51.1124 56.0417 51.8624 56.225 52.6791 56.225ZM64.9703 46.525C65.3703 45.7417 65.937 45.1333 66.6703 44.7C67.4203 44.2667 68.3286 44.05 69.3953 44.05V46.4H68.7953C66.2453 46.4 64.9703 47.7833 64.9703 50.55V58H62.6953V44.3H64.9703V46.525ZM84.5215 50.625C84.5215 51.0583 84.4965 51.5167 84.4465 52H73.4965C73.5798 53.35 74.0381 54.4083 74.8715 55.175C75.7215 55.925 76.7465 56.3 77.9465 56.3C78.9298 56.3 79.7465 56.075 80.3965 55.625C81.0631 55.1583 81.5298 54.5417 81.7965 53.775H84.2465C83.8798 55.0917 83.1465 56.1667 82.0465 57C80.9465 57.8167 79.5798 58.225 77.9465 58.225C76.6465 58.225 75.4798 57.9333 74.4465 57.35C73.4298 56.7667 72.6298 55.9417 72.0465 54.875C71.4631 53.7917 71.1715 52.5417 71.1715 51.125C71.1715 49.7083 71.4548 48.4667 72.0215 47.4C72.5881 46.3333 73.3798 45.5167 74.3965 44.95C75.4298 44.3667 76.6131 44.075 77.9465 44.075C79.2465 44.075 80.3965 44.3583 81.3965 44.925C82.3965 45.4917 83.1631 46.275 83.6965 47.275C84.2465 48.2583 84.5215 49.375 84.5215 50.625ZM82.1715 50.15C82.1715 49.2833 81.9798 48.5417 81.5965 47.925C81.2131 47.2917 80.6881 46.8167 80.0215 46.5C79.3715 46.1667 78.6465 46 77.8465 46C76.6965 46 75.7131 46.3667 74.8965 47.1C74.0965 47.8333 73.6381 48.85 73.5215 50.15H82.1715Z" fill="white"/>
</svg>
