<svg width="66" height="45" viewBox="0 0 66 45" fill="none" xmlns="http://www.w3.org/2000/svg">
<path d="M22.4131 44.8262C34.7915 44.8262 44.8262 34.7915 44.8262 22.4131C44.8262 10.0347 34.7915 0 22.4131 0C10.0347 0 0 10.0347 0 22.4131C0 34.7915 10.0347 44.8262 22.4131 44.8262Z" fill="#F2A71B"/>
<path d="M22.6451 31.077C21.5167 31.077 20.4965 30.8838 19.5845 30.4973C18.688 30.1109 17.9769 29.5544 17.4514 28.8279C16.9259 28.1014 16.6553 27.2436 16.6399 26.2543H20.1178C20.1642 26.919 20.396 27.4445 20.8134 27.8309C21.2462 28.2174 21.8335 28.4106 22.5755 28.4106C23.3329 28.4106 23.928 28.2328 24.3608 27.8773C24.7936 27.5063 25.01 27.0272 25.01 26.4398C25.01 25.9606 24.8632 25.5665 24.5695 25.2573C24.2758 24.9482 23.9048 24.7086 23.4566 24.5385C23.0238 24.3531 22.4209 24.1521 21.6481 23.9357C20.597 23.6266 19.7391 23.3251 19.0744 23.0315C18.4252 22.7223 17.861 22.2663 17.3818 21.6635C16.9181 21.0452 16.6863 20.226 16.6863 19.2058C16.6863 18.2474 16.9259 17.4127 17.405 16.7017C17.8842 15.9907 18.5566 15.4496 19.4222 15.0787C20.2878 14.6922 21.2771 14.499 22.39 14.499C24.0594 14.499 25.4119 14.9086 26.4476 15.7279C27.4986 16.5317 28.0783 17.66 28.1865 19.113H24.6159C24.5849 18.5566 24.3454 18.1006 23.8971 17.7451C23.4643 17.3741 22.8846 17.1886 22.1581 17.1886C21.5244 17.1886 21.0143 17.3509 20.6279 17.6755C20.2569 18.0001 20.0714 18.4715 20.0714 19.0898C20.0714 19.5226 20.2105 19.8859 20.4888 20.1796C20.7824 20.4578 21.138 20.6897 21.5553 20.8752C21.9881 21.0452 22.591 21.2461 23.3638 21.478C24.4149 21.7871 25.2728 22.0963 25.9375 22.4054C26.6021 22.7146 27.174 23.1783 27.6532 23.7966C28.1324 24.4149 28.372 25.2264 28.372 26.2311C28.372 27.0967 28.1479 27.9005 27.6996 28.6425C27.2513 29.3844 26.5944 29.9795 25.7288 30.4278C24.8632 30.8606 23.8353 31.077 22.6451 31.077ZM43.3125 18.0697V30.9147H40.0432V29.2917C39.6259 29.8481 39.0772 30.2887 38.397 30.6133C37.7324 30.9224 37.0059 31.077 36.2176 31.077C35.2128 31.077 34.324 30.8683 33.5512 30.451C32.7783 30.0182 32.1678 29.3921 31.7195 28.5729C31.2867 27.7382 31.0703 26.7489 31.0703 25.6051V18.0697H34.3163V25.1414C34.3163 26.1616 34.5714 26.9499 35.0815 27.5063C35.5915 28.0473 36.2871 28.3178 37.1682 28.3178C38.0647 28.3178 38.768 28.0473 39.2781 27.5063C39.7882 26.9499 40.0432 26.1616 40.0432 25.1414V18.0697H43.3125ZM53.6332 17.8842C55.1635 17.8842 56.4001 18.3711 57.343 19.3449C58.2859 20.3032 58.7573 21.648 58.7573 23.3792V30.9147H55.5113V23.8198C55.5113 22.7996 55.2562 22.019 54.7462 21.478C54.2361 20.9215 53.5405 20.6433 52.6594 20.6433C51.7629 20.6433 51.0519 20.9215 50.5263 21.478C50.0162 22.019 49.7612 22.7996 49.7612 23.8198V30.9147H46.5151V18.0697H49.7612V19.6695C50.194 19.113 50.7427 18.6802 51.4074 18.3711C52.0875 18.0465 52.8295 17.8842 53.6332 17.8842Z" fill="#0F50A6"/>
<path d="M21.9881 44.9614C21.0993 44.9614 20.3007 44.8068 19.5922 44.4977C18.8966 44.1756 18.3492 43.7377 17.9498 43.1838C17.5505 42.617 17.3444 41.9665 17.3315 41.2323H19.2057C19.2701 41.8635 19.5278 42.398 19.9786 42.836C20.4423 43.2611 21.1122 43.4736 21.9881 43.4736C22.8253 43.4736 23.4822 43.2675 23.9589 42.8553C24.4483 42.4302 24.6931 41.8892 24.6931 41.2323C24.6931 40.717 24.5514 40.2985 24.268 39.9764C23.9846 39.6543 23.6304 39.4097 23.2053 39.2422C22.7802 39.0747 22.207 38.8944 21.4857 38.7012C20.5969 38.4693 19.882 38.2375 19.341 38.0056C18.8129 37.7737 18.3556 37.413 17.9692 36.9236C17.5956 36.4212 17.4088 35.7514 17.4088 34.9141C17.4088 34.1799 17.5956 33.5294 17.9692 32.9627C18.3427 32.3959 18.8644 31.9579 19.5342 31.6488C20.2169 31.3396 20.9962 31.1851 21.8721 31.1851C23.1344 31.1851 24.165 31.5006 24.9636 32.1318C25.7751 32.763 26.2324 33.6003 26.3354 34.6436H24.4033C24.3389 34.1284 24.0684 33.6776 23.5918 33.2911C23.1151 32.8918 22.484 32.6921 21.6982 32.6921C20.964 32.6921 20.365 32.8854 19.9013 33.2718C19.4376 33.6453 19.2057 34.1735 19.2057 34.8562C19.2057 35.3456 19.341 35.745 19.6115 36.0541C19.8949 36.3633 20.2362 36.6015 20.6355 36.769C21.0477 36.9236 21.6209 37.1039 22.3552 37.31C23.244 37.5548 23.9589 37.7995 24.4999 38.0442C25.0409 38.2761 25.5046 38.6432 25.891 39.1456C26.2775 39.635 26.4707 40.3049 26.4707 41.155C26.4707 41.812 26.2968 42.4302 25.949 43.0099C25.6012 43.5895 25.0859 44.0597 24.4033 44.4204C23.7206 44.7811 22.9155 44.9614 21.9881 44.9614ZM31.2028 35.687V41.9279C31.2028 42.4432 31.3123 42.8103 31.5313 43.0292C31.7503 43.2353 32.1303 43.3384 32.6713 43.3384H33.9658V44.8261H32.3815C31.4025 44.8261 30.6683 44.6007 30.1788 44.1499C29.6893 43.6991 29.4446 42.9583 29.4446 41.9279V35.687H28.0727V34.2379H29.4446V31.5715H31.2028V34.2379H33.9658V35.687H31.2028ZM40.714 45C39.7222 45 38.8205 44.7746 38.009 44.3238C37.2104 43.873 36.5792 43.2353 36.1155 42.4109C35.6647 41.5737 35.4392 40.6076 35.4392 39.5127C35.4392 38.4307 35.6711 37.4775 36.1348 36.6531C36.6114 35.8158 37.2555 35.1782 38.067 34.7402C38.8785 34.2894 39.7866 34.064 40.7913 34.064C41.796 34.064 42.7042 34.2894 43.5157 34.7402C44.3272 35.1782 44.9648 35.8093 45.4285 36.6338C45.9051 37.4582 46.1434 38.4178 46.1434 39.5127C46.1434 40.6076 45.8986 41.5737 45.4092 42.4109C44.9326 43.2353 44.2821 43.873 43.4577 44.3238C42.6333 44.7746 41.7188 45 40.714 45ZM40.714 43.4543C41.3452 43.4543 41.9377 43.3061 42.4916 43.0099C43.0455 42.7137 43.4899 42.2693 43.8248 41.6767C44.1726 41.0841 44.3465 40.3628 44.3465 39.5127C44.3465 38.6625 44.179 37.9412 43.8441 37.3487C43.5093 36.7561 43.0713 36.3182 42.5303 36.0348C41.9893 35.7385 41.4032 35.5904 40.772 35.5904C40.128 35.5904 39.5354 35.7385 38.9944 36.0348C38.4663 36.3182 38.0412 36.7561 37.7192 37.3487C37.3971 37.9412 37.2361 38.6625 37.2361 39.5127C37.2361 40.3757 37.3907 41.1035 37.6999 41.696C38.0219 42.2886 38.447 42.733 38.9751 43.0292C39.5032 43.3126 40.0828 43.4543 40.714 43.4543ZM50.2135 35.9575C50.5226 35.3521 50.9606 34.8819 51.5273 34.547C52.107 34.2121 52.809 34.0447 53.6334 34.0447V35.8609H53.1697C51.1989 35.8609 50.2135 36.93 50.2135 39.0683V44.8261H48.4552V34.2379H50.2135V35.9575ZM65.3239 39.1262C65.3239 39.4611 65.3046 39.8154 65.2659 40.1889H56.8031C56.8675 41.2323 57.2217 42.0502 57.8658 42.6428C58.5227 43.2224 59.3149 43.5123 60.2423 43.5123C61.0023 43.5123 61.6335 43.3384 62.1358 42.9906C62.651 42.6299 63.0117 42.1533 63.2179 41.5608H65.1114C64.828 42.5784 64.2612 43.4092 63.4111 44.0533C62.5609 44.6845 61.5046 45 60.2423 45C59.2376 45 58.3359 44.7746 57.5373 44.3238C56.7515 43.873 56.1332 43.2353 55.6824 42.4109C55.2315 41.5737 55.0062 40.6076 55.0062 39.5127C55.0062 38.4178 55.2251 37.4582 55.6631 36.6338C56.101 35.8093 56.7129 35.1782 57.4987 34.7402C58.2973 34.2894 59.2118 34.064 60.2423 34.064C61.2471 34.064 62.1358 34.2829 62.9087 34.7209C63.6816 35.1589 64.2741 35.7643 64.6863 36.5372C65.1114 37.2971 65.3239 38.1602 65.3239 39.1262ZM63.5077 38.7591C63.5077 38.0893 63.3595 37.5161 63.0633 37.0395C62.767 36.5501 62.3612 36.1829 61.846 35.9382C61.3437 35.6806 60.7833 35.5517 60.165 35.5517C59.2762 35.5517 58.5162 35.8352 57.8851 36.4019C57.2668 36.9686 56.9125 37.7544 56.8224 38.7591H63.5077Z" fill="black"/>
</svg>
