<svg width="34" height="35" viewBox="0 0 34 35" fill="none" xmlns="http://www.w3.org/2000/svg">
<path d="M2.8335 11.6166C2.8335 11.6166 9.17613 4.3562 17.0002 4.3562C24.8241 4.3562 31.1668 11.6166 31.1668 11.6166" stroke="#F25D07" stroke-width="3" stroke-linecap="round"/>
<path d="M30.5208 18.9424C30.9515 19.5614 31.1668 19.871 31.1668 20.3291C31.1668 20.7873 30.9515 21.0968 30.5208 21.7159C28.5855 24.4975 23.6432 30.4937 17.0002 30.4937C10.3571 30.4937 5.4148 24.4975 3.47955 21.7159C3.04884 21.0968 2.8335 20.7873 2.8335 20.3291C2.8335 19.871 3.04884 19.5614 3.47955 18.9424C5.4148 16.1608 10.3571 10.1646 17.0002 10.1646C23.6432 10.1646 28.5855 16.1608 30.5208 18.9424Z" fill="#F25D07" stroke="#F25D07" stroke-width="3"/>
<path d="M21.25 20.3292C21.25 17.9232 19.3473 15.9729 17 15.9729C14.6527 15.9729 12.75 17.9232 12.75 20.3292C12.75 22.7351 14.6527 24.6854 17 24.6854C19.3473 24.6854 21.25 22.7351 21.25 20.3292Z" fill="white" stroke="white" stroke-width="3"/>
</svg>
