<svg width="34" height="35" viewBox="0 0 34 35" fill="" xmlns="http://www.w3.org/2000/svg">
<path d="M2.15162 1.98194C1.19537 2.11135 0.345368 2.88779 0.0996648 3.86175C-0.16596 4.89701 0.166071 5.8914 0.976227 6.53162L1.26177 6.75638V19.6222V32.488L1.45435 32.7059L1.64693 32.9307H2.51685C3.37349 32.9307 3.38677 32.9307 3.56607 32.74L3.75201 32.5561L3.78521 19.6562L3.81841 6.76319L4.21021 6.3954C4.87427 5.77561 5.1399 4.98555 4.98052 4.08651C4.73482 2.67665 3.53951 1.79124 2.15162 1.98194Z" fill=""/>
<path d="M14.6094 4.56322C12.2453 4.74711 9.3168 5.74831 6.41484 7.36931C5.59805 7.81883 5.35898 8.01634 5.17305 8.39094C5.05352 8.63614 5.04688 8.90176 5.04688 16.4142C5.04688 23.9947 5.04688 24.1922 5.17969 24.4442C5.45195 24.9959 6.00977 25.2752 6.5543 25.1389C6.71367 25.0981 7.27148 24.8325 7.80273 24.56C10.8973 22.939 13.7727 22.074 16.0371 22.0672C17.6906 22.0672 19.2977 22.5099 21.1371 23.4703C22.1332 23.9879 23.282 24.4647 24.059 24.6758C24.8625 24.8937 26.6289 24.8869 27.6383 24.669C29.0594 24.3557 30.3211 23.8857 32.041 23.0208C33.2961 22.3941 33.7543 22.0672 33.9004 21.7062C33.9867 21.4815 34 20.4667 34 13.5059C34 5.57123 34 5.55761 33.8605 5.26474C33.6879 4.90376 33.3957 4.65857 33.0238 4.57684C32.632 4.48149 32.1938 4.65857 30.5801 5.53718C28.1098 6.87892 26.3566 7.41017 24.9621 7.21947C24.3047 7.13093 24.2516 7.1173 22.877 6.4907C20.1875 5.26474 18.4145 4.71306 16.834 4.60408C15.6254 4.51554 15.2934 4.50873 14.6094 4.56322Z" fill=""/>
</svg>
