<svg width="34" height="34" viewBox="0 0 34 34" fill="none" xmlns="http://www.w3.org/2000/svg">
<path d="M8.03499 1.29502C5.39202 1.68017 3.10101 3.254 1.64007 5.69111C0.47796 7.61689 -0.132978 10.1536 0.0529597 12.2919C0.338507 15.579 1.83265 18.7399 4.28968 21.2966C4.65491 21.6751 7.63655 24.411 10.9237 27.3927C16.8272 32.7384 16.8936 32.7981 17.033 32.6786C17.1061 32.6122 19.9284 30.0954 23.3084 27.0806C29.0991 21.9142 30.0354 21.0376 30.8588 19.9884C32.9971 17.2458 34.2455 13.454 33.9401 10.6317C33.7674 9.05791 33.4354 7.83603 32.8444 6.60087C31.7354 4.28994 29.9358 2.57001 27.7842 1.75986C25.533 0.909859 22.9166 1.05595 20.7584 2.13837C19.3573 2.84228 18.0756 3.9579 17.2522 5.18642L16.9069 5.70439L16.5815 5.20634C15.4127 3.44658 13.6397 2.11845 11.7205 1.56064C10.5053 1.20869 9.23695 1.11572 8.03499 1.29502Z" fill=""/>
</svg>
