<svg width="34" height="32" viewBox="0 0 34 32" fill="none" xmlns="http://www.w3.org/2000/svg">
<path d="M8.01497 0.0890824C5.372 0.474239 3.08099 2.04807 1.62005 4.48517C0.45794 6.41096 -0.152997 8.94767 0.0329402 11.086C0.318487 14.3731 1.81263 17.534 4.26966 20.0906C4.63489 20.4692 7.61653 23.2051 10.9036 26.1867C16.8072 31.5324 16.8736 31.5922 17.013 31.4727C17.0861 31.4063 19.9083 28.8895 23.2884 25.8746C29.079 20.7082 30.0154 19.8317 30.8388 18.7824C32.9771 16.0399 34.2255 12.2481 33.9201 9.4258C33.7474 7.85197 33.4154 6.6301 32.8243 5.39494C31.7154 3.084 29.9158 1.36408 27.7642 0.553926C25.513 -0.296074 22.8966 -0.14998 20.7384 0.932442C19.3372 1.63635 18.0556 2.75197 17.2322 3.98049L16.8868 4.49846L16.5615 4.00041C15.3927 2.24064 13.6197 0.91252 11.7005 0.354707C10.4853 0.00275428 9.21693 -0.0902145 8.01497 0.0890824Z" fill="#6F6F6F"/>
</svg>
