<svg width="34" height="34" viewBox="0 0 34 34" fill="none" xmlns="http://www.w3.org/2000/svg">
<path d="M16.8008 7.47079C2.78909 13.4806 2.01214 13.8192 1.77972 14.0849C0.982843 14.9614 0.836749 16.4556 1.46097 17.2192C1.90589 17.7505 1.74651 17.7106 7.43753 18.6602C10.3063 19.1317 12.7301 19.5434 12.8231 19.5634C12.9758 19.5899 13.1352 19.477 13.9918 18.7134C15.3266 17.5181 17.7637 15.4329 20.0547 13.5138C21.0973 12.6438 22.0203 11.8669 22.1133 11.7938C22.3922 11.5481 21.9739 12.0329 20.4133 13.7595C18.016 16.4024 15.4926 19.3243 14.6758 20.4134L14.4168 20.752L15.3332 26.2837C16.3625 32.4528 16.2496 32.0278 16.9137 32.4661C17.6309 32.9442 18.6203 33.004 19.4039 32.6188C19.6364 32.5059 19.9219 32.3134 20.0414 32.1872C20.2141 32.0079 21.5157 29.0329 26.6024 17.1595C32.4594 3.49969 32.9442 2.33759 32.9176 2.06532C32.8578 1.53407 32.4063 1.12899 31.8817 1.13564C31.6293 1.13564 29.0196 2.23798 16.8008 7.47079Z" fill="#F25D07"/>
</svg>
