<svg width="58" height="58" viewBox="0 0 58 58" fill="none" xmlns="http://www.w3.org/2000/svg">
<circle cx="29" cy="29" r="28.5" fill="" stroke=""/>
<path d="M19.3329 35.028C16.6803 36.6075 9.72506 39.8327 13.9612 43.8686C16.0306 45.84 18.3353 47.25 21.2329 47.25H37.7671C40.6647 47.25 42.9694 45.84 45.0387 43.8686C49.2749 39.8327 42.3198 36.6075 39.667 35.028C33.4465 31.3239 25.5535 31.3239 19.3329 35.028Z" stroke="" stroke-width="1.5" stroke-linecap="round" stroke-linejoin="round"/>
<path d="M37.9375 18.1875C37.9375 22.8474 34.1599 26.625 29.5 26.625C24.8401 26.625 21.0625 22.8474 21.0625 18.1875C21.0625 13.5276 24.8401 9.75 29.5 9.75C34.1599 9.75 37.9375 13.5276 37.9375 18.1875Z" stroke="" stroke-width="1.5"/>
</svg>
