<svg width="32" height="32" viewBox="0 0 32 32" fill="none" xmlns="http://www.w3.org/2000/svg">
<path d="M10.0225 16H5.19653C4.62488 16 4.33905 16 4.16243 16.1828C3.98579 16.3656 3.99259 16.6477 4.00616 17.2121C4.01999 17.7867 4.05288 18.3589 4.13109 18.93C4.1634 19.1659 4.17955 19.2837 4.25693 19.3443C4.33433 19.4048 4.47476 19.3884 4.75563 19.3556C6.31255 19.1735 7.81556 20.4435 7.81556 22.1119C7.81556 22.9432 7.45688 23.6893 6.88851 24.1985C6.68061 24.3847 6.57667 24.4779 6.56925 24.5756C6.56184 24.6733 6.63685 24.7647 6.78687 24.9475C7.33088 25.61 7.94253 26.2129 8.611 26.7453C8.76957 26.8716 8.84885 26.9348 8.93595 26.9323C9.02304 26.9297 9.11199 26.8501 9.28988 26.6911C9.77017 26.2616 10.3999 26.0012 11.0893 26.0012C12.5678 26.0012 13.7515 27.2391 13.8141 28.6739C13.8245 28.912 13.8297 29.0309 13.8875 29.0956C13.9452 29.1604 14.044 29.1751 14.2416 29.2047C15.3895 29.3763 16.6105 29.3763 17.7584 29.2047C17.956 29.1751 18.0548 29.1604 18.1125 29.0956C18.1703 29.0309 18.1755 28.912 18.1859 28.6739C18.2485 27.2391 19.4321 26.0012 20.9107 26.0012C21.6001 26.0012 22.2299 26.2616 22.7101 26.6911C22.888 26.8501 22.9769 26.9297 23.064 26.9323C23.1512 26.9348 23.2304 26.8716 23.3889 26.7453C24.0575 26.2129 24.6691 25.61 25.2131 24.9475C25.3632 24.7647 25.4381 24.6733 25.4308 24.5756C25.4233 24.4779 25.3193 24.3847 25.1115 24.1985C24.5431 23.6893 24.1844 22.9432 24.1844 22.1119C24.1844 20.4435 25.6875 19.1735 27.2444 19.3556C27.5252 19.3884 27.6657 19.4048 27.7431 19.3443C27.8204 19.2837 27.8367 19.1659 27.8689 18.93C27.9471 18.3589 27.98 17.7867 27.9939 17.2121C28.0075 16.6477 28.0143 16.3656 27.8376 16.1828C27.6609 16 27.3751 16 26.8035 16H21.9775C21.7017 19.1151 19.1308 21.5561 16 21.5561C12.8692 21.5561 10.2982 19.1151 10.0225 16Z" stroke="white" stroke-width="3" stroke-linecap="round" stroke-linejoin="round"/>
<path d="M9.33331 16H22.6666" stroke="white" stroke-width="3" stroke-linecap="round" stroke-linejoin="round"/>
<path d="M16 16V8" stroke="white" stroke-width="3" stroke-linecap="round" stroke-linejoin="round"/>
<path d="M15.6549 10.3216C16.3865 8.27107 15.9563 5.9237 14.3496 4.31706C12.743 2.71042 10.3956 2.28007 8.34506 3.01173C7.61342 5.06225 8.04376 7.40962 9.6504 9.01626C11.257 10.6229 13.6044 11.0532 15.6549 10.3216Z" stroke="white" stroke-width="3" stroke-linecap="round" stroke-linejoin="round"/>
<path d="M16.2876 13.0458C15.6779 11.337 16.0366 9.38087 17.3754 8.042C18.7142 6.70314 20.6704 6.34452 22.3791 6.95423C22.9888 8.663 22.6302 10.6191 21.2914 11.958C19.9526 13.2969 17.9963 13.6555 16.2876 13.0458Z" stroke="white" stroke-width="3" stroke-linecap="round" stroke-linejoin="round"/>
</svg>
