<svg width="32" height="32" viewBox="0 0 32 32" fill="none" xmlns="http://www.w3.org/2000/svg">
<path d="M3.00554 20.8429C3.05082 20.412 3.3631 20.0647 3.98768 19.3701L5.36244 17.8332C5.69848 17.4077 5.93695 16.6667 5.93695 15.9997C5.93695 15.3333 5.6984 14.592 5.3624 14.1667L3.98768 12.6297C3.3631 11.9351 3.05081 11.5879 3.00554 11.1569C2.96026 10.7259 3.19354 10.3211 3.66009 9.51143L4.3182 8.3693C4.81593 7.50552 5.06478 7.07363 5.48822 6.90142C5.91166 6.72919 6.39054 6.8651 7.34833 7.13688L8.97531 7.59515C9.58679 7.73615 10.2283 7.65616 10.7867 7.3693L11.2358 7.11014C11.7146 6.80348 12.0829 6.35135 12.2867 5.8199L12.732 4.49004C13.0247 3.61003 13.1711 3.17002 13.5196 2.91834C13.8681 2.66666 14.3311 2.66666 15.2568 2.66666H16.7432C17.6691 2.66666 18.132 2.66666 18.4804 2.91834C18.8289 3.17002 18.9753 3.61003 19.2681 4.49004L19.7133 5.8199C19.9172 6.35135 20.2855 6.80348 20.7643 7.11014L21.2135 7.3693C21.7717 7.65616 22.4133 7.73615 23.0248 7.59515L24.6517 7.13688C25.6095 6.8651 26.0884 6.72919 26.5119 6.90142C26.9353 7.07363 27.1841 7.50552 27.6819 8.3693L28.34 9.51143C28.8065 10.3211 29.0397 10.7259 28.9945 11.1569C28.9492 11.5879 28.6369 11.9351 28.0124 12.6297L26.6376 14.1667C26.3017 14.592 26.0631 15.3333 26.0631 15.9997C26.0631 16.6667 26.3016 17.4077 26.6376 17.8332L28.0124 19.3701C28.6369 20.0647 28.9492 20.412 28.9945 20.8429C29.0397 21.274 28.8065 21.6788 28.34 22.4884L27.6819 23.6305C27.1841 24.4943 26.9353 24.9263 26.5119 25.0984C26.0884 25.2707 25.6095 25.1348 24.6517 24.8629L23.0248 24.4047C22.4132 24.2636 21.7716 24.3437 21.2132 24.6307L20.7641 24.8899C20.2853 25.1965 19.9172 25.6485 19.7135 26.18L19.2681 27.51C18.9753 28.39 18.8289 28.83 18.4804 29.0816C18.132 29.3333 17.6691 29.3333 16.7432 29.3333H15.2568C14.3311 29.3333 13.8681 29.3333 13.5196 29.0816C13.1711 28.83 13.0247 28.39 12.732 27.51" stroke="white" stroke-width="1.5" stroke-linecap="round"/>
<path d="M21.6664 14.2008L20.6664 14.1965V14.2008H21.6664ZM18.1337 10.6669V11.6669L18.138 11.6669L18.1337 10.6669ZM15.4751 22.6136C16.7225 22.6104 17.8507 22.5893 18.7969 22.4335C19.7513 22.2763 20.6469 21.9635 21.3323 21.2783L19.9181 19.8639C19.6517 20.1303 19.2275 20.3356 18.4717 20.4601C17.7079 20.5859 16.7356 20.6104 15.47 20.6136L15.4751 22.6136ZM21.3323 21.2783C21.6276 20.9829 21.9073 20.6699 22.1239 20.2721C22.3447 19.8669 22.4684 19.4332 22.5423 18.9255C22.6805 17.9765 22.6664 16.5509 22.6664 14.2008H20.6664C20.6664 16.6568 20.6743 17.8739 20.5632 18.6373C20.5124 18.9857 20.4437 19.1756 20.3675 19.3155C20.2872 19.4631 20.1655 19.6167 19.9181 19.8639L21.3323 21.2783ZM22.6664 14.2051C22.6723 12.8458 21.0296 12.1655 20.0711 13.1237L21.4849 14.5383C21.1833 14.8396 20.6645 14.6269 20.6664 14.1965L22.6664 14.2051ZM20.0711 13.1237L17.5953 15.5983L19.0093 17.0128L21.4849 14.5383L20.0711 13.1237ZM17.5953 15.5983C17.3575 15.836 16.9719 15.836 16.734 15.5983L15.32 17.0125C16.3387 18.0312 17.9904 18.0313 19.0093 17.0128L17.5953 15.5983ZM11.7198 16.8621C11.723 15.5973 11.7474 14.6252 11.8733 13.8613C11.9978 13.1056 12.2031 12.6814 12.4695 12.4151L11.0554 11.0008C10.37 11.686 10.0572 12.5818 9.89992 13.5361C9.744 14.4824 9.72296 15.6104 9.71978 16.8571L11.7198 16.8621ZM12.4695 12.4151C12.7168 12.1679 12.8704 12.0462 13.018 11.9658C13.158 11.8896 13.3479 11.8209 13.6964 11.7701C14.46 11.659 15.6773 11.6669 18.1337 11.6669V9.66691C15.7832 9.66691 14.3575 9.65285 13.4084 9.791C12.9006 9.86491 12.4669 9.98863 12.0616 10.2093C11.6639 10.4259 11.3507 10.7055 11.0554 11.0008L12.4695 12.4151ZM18.138 11.6669C17.7084 11.6687 17.4944 11.1502 17.7965 10.8481L19.2108 12.2623C20.1697 11.3032 19.4883 9.66111 18.1295 9.66692L18.138 11.6669ZM17.7965 10.8481L15.3215 13.3233L16.7357 14.7375L19.2108 12.2623L17.7965 10.8481ZM15.3215 13.3233C14.3043 14.3407 14.2996 15.9924 15.32 17.0125L16.734 15.5983C16.4977 15.362 16.4967 14.9767 16.7357 14.7375L15.3215 13.3233ZM4.46286 27.8705C3.8457 27.2533 3.8457 26.2527 4.46286 25.6356L3.04865 24.2213C1.65045 25.6196 1.65045 27.8865 3.04865 29.2847L4.46286 27.8705ZM6.69777 27.8705C6.08061 28.4876 5.08001 28.4876 4.46286 27.8705L3.04865 29.2847C4.44685 30.6829 6.71378 30.6829 8.11198 29.2847L6.69777 27.8705ZM12.8794 21.688L6.69777 27.8705L8.11198 29.2847L14.2937 23.102L12.8794 21.688ZM4.46286 25.6356L10.6456 19.4524L9.2314 18.0383L3.04865 24.2213L4.46286 25.6356ZM9.71978 16.8571C9.71904 17.1453 9.71798 17.3072 9.70854 17.4285C9.70432 17.4827 9.69944 17.5123 9.69624 17.5276C9.69473 17.5348 9.69362 17.5385 9.69322 17.5399C9.69325 17.5397 9.69301 17.5407 9.69322 17.5399C9.69321 17.5399 9.69284 17.5411 9.69282 17.5412L11.5396 18.3088C11.735 17.8389 11.7186 17.3273 11.7198 16.8621L9.71978 16.8571ZM10.6456 19.4524C10.9723 19.1257 11.3444 18.7785 11.5396 18.3088L9.69282 17.5412C9.6928 17.5412 9.69266 17.5416 9.69204 17.5427C9.69136 17.544 9.68945 17.5475 9.68548 17.5535C9.67709 17.5663 9.6598 17.5903 9.62486 17.6309C9.54645 17.7223 9.4338 17.8359 9.2314 18.0383L10.6456 19.4524ZM15.47 20.6136C15.0048 20.6148 14.4931 20.5984 14.0231 20.7937L14.7909 22.6405C14.7901 22.6407 14.7911 22.6404 14.7909 22.6405C14.7923 22.6401 14.7972 22.6387 14.8044 22.6371C14.8197 22.6339 14.8493 22.6291 14.9036 22.6248C15.0249 22.6153 15.1867 22.6143 15.4751 22.6136L15.47 20.6136ZM14.2937 23.102C14.4961 22.8996 14.6097 22.7869 14.7011 22.7085C14.7417 22.6736 14.7657 22.6563 14.7785 22.6479C14.7845 22.6439 14.788 22.642 14.7893 22.6413C14.7905 22.6407 14.7908 22.6405 14.7909 22.6405L14.0231 20.7937C13.5533 20.9891 13.2061 21.3612 12.8794 21.688L14.2937 23.102Z" fill="white"/>
</svg>
