<svg width="32" height="32" viewBox="0 0 32 32" fill="none" xmlns="http://www.w3.org/2000/svg">
<path d="M14.6615 13.3333H14.6815M14.6664 21.3333H14.6864" stroke="white" stroke-width="2" stroke-linecap="round" stroke-linejoin="round"/>
<path d="M9.33334 17.3333H20" stroke="white" stroke-width="1.5" stroke-linecap="round" stroke-linejoin="round"/>
<path d="M23.3333 6.66666C24.4379 6.66666 25.3333 7.56209 25.3333 8.66666C25.3333 9.77123 24.4379 10.6667 23.3333 10.6667C22.2288 10.6667 21.3333 9.77123 21.3333 8.66666C21.3333 7.56209 22.2288 6.66666 23.3333 6.66666Z" stroke="white" stroke-width="1.5" stroke-linecap="round" stroke-linejoin="round"/>
<path d="M3.69897 14.8585C2.36143 16.3524 2.33266 18.6061 3.56021 20.1916C5.99614 23.3377 8.66231 26.0039 11.8084 28.4397C13.3939 29.6673 15.6476 29.6385 17.1415 28.3011C21.1972 24.6696 24.9113 20.8745 28.4959 16.7039C28.8503 16.2916 29.0719 15.7863 29.1216 15.2448C29.3416 12.8506 29.7936 5.95288 27.9204 4.07964C26.0471 2.2064 19.1493 2.65835 16.7552 2.87834C16.2137 2.9281 15.7084 3.14976 15.296 3.50414C11.1255 7.0886 7.33041 10.8028 3.69897 14.8585Z" stroke="white" stroke-width="1.5"/>
</svg>
