<svg width="32" height="32" viewBox="0 0 32 32" fill="none" xmlns="http://www.w3.org/2000/svg">
<path d="M5.91156 24.0404C6.30208 23.6499 6.30208 23.0168 5.91156 22.6263C5.52104 22.2357 4.88786 22.2357 4.49734 22.6263L5.91156 24.0404ZM9.37377 27.5027C9.76429 27.1121 9.76429 26.4789 9.37377 26.0884C8.98325 25.6979 8.35008 25.6979 7.95956 26.0884L9.37377 27.5027ZM4.49734 22.6263L3.34328 23.7803L4.75749 25.1945L5.91156 24.0404L4.49734 22.6263ZM8.21971 28.6567L9.37377 27.5027L7.95956 26.0884L6.80549 27.2425L8.21971 28.6567ZM3.34328 28.6567C4.68987 30.0033 6.87311 30.0033 8.21971 28.6567L6.80549 27.2425C6.23994 27.808 5.32302 27.808 4.75749 27.2425L3.34328 28.6567ZM3.34328 23.7803C1.99668 25.1269 1.99668 27.3101 3.34328 28.6567L4.75749 27.2425C4.19194 26.6769 4.19194 25.76 4.75749 25.1945L3.34328 23.7803Z" fill="white"/>
<path d="M22.6263 4.49734C22.2357 4.88786 22.2357 5.52104 22.6263 5.91156C23.0168 6.30208 23.6499 6.30208 24.0404 5.91156L22.6263 4.49734ZM26.0884 7.95956C25.6979 8.35008 25.6979 8.98325 26.0884 9.37377C26.4789 9.76429 27.1121 9.76429 27.5027 9.37377L26.0884 7.95956ZM24.0404 5.91156L25.1945 4.75749L23.7803 3.34328L22.6263 4.49734L24.0404 5.91156ZM27.2425 6.80549L26.0884 7.95956L27.5027 9.37377L28.6567 8.21971L27.2425 6.80549ZM27.2425 4.75749C27.808 5.32302 27.808 6.23994 27.2425 6.80549L28.6567 8.21971C30.0033 6.87311 30.0033 4.68987 28.6567 3.34328L27.2425 4.75749ZM25.1945 4.75749C25.76 4.19194 26.6769 4.19194 27.2425 4.75749L28.6567 3.34328C27.3101 1.99668 25.1269 1.99668 23.7803 3.34328L25.1945 4.75749Z" fill="white"/>
<path d="M10.3333 18.3333C10.3333 18.3333 11.5406 16.7044 12.3333 16.3333C14.7264 15.2132 15.2132 14.7264 16.3333 12.3333C16.7044 11.5406 18.3333 10.3333 18.3333 10.3333M13.6667 21.6667C13.6667 21.6667 15.2956 20.4593 15.6667 19.6667C16.7868 17.2736 17.2736 16.7868 19.6667 15.6667C20.4593 15.2956 21.6667 13.6667 21.6667 13.6667" stroke="white" stroke-width="1.5" stroke-linecap="round" stroke-linejoin="round"/>
<path d="M23.3737 13.059L18.9409 8.62622L17.5268 10.0404L21.9596 14.4732L23.3737 13.059ZM21.9596 5.60766L26.3924 10.0404L27.8065 8.62622L23.3737 4.19345L21.9596 5.60766ZM18.9409 5.60766C19.4833 5.06526 19.8205 4.7311 20.0971 4.52015C20.3504 4.32682 20.4323 4.33333 20.4503 4.33333V2.33333C19.8192 2.33333 19.3152 2.60104 18.8839 2.93012C18.4756 3.24158 18.0292 3.69102 17.5268 4.19345L18.9409 5.60766ZM23.3737 4.19345C22.8713 3.69102 22.4249 3.24158 22.0167 2.93012C21.5853 2.60104 21.0815 2.33333 20.4503 2.33333V4.33333C20.4683 4.33333 20.5501 4.32682 20.8035 4.52015C21.08 4.7311 21.4172 5.06526 21.9596 5.60766L23.3737 4.19345ZM18.9409 8.62622C18.3985 8.08382 18.0644 7.74666 17.8535 7.47018C17.6601 7.21678 17.6667 7.13497 17.6667 7.11694H15.6667C15.6667 7.74808 15.9344 8.25205 16.2635 8.68334C16.5749 9.09157 17.0244 9.53802 17.5268 10.0404L18.9409 8.62622ZM17.5268 4.19345C17.0244 4.69586 16.5749 5.1423 16.2635 5.55053C15.9344 5.98183 15.6667 6.4858 15.6667 7.11694H17.6667C17.6667 7.09892 17.6601 7.01709 17.8535 6.76369C18.0644 6.48722 18.3985 6.15005 18.9409 5.60766L17.5268 4.19345ZM26.3924 13.059C25.85 13.6015 25.5128 13.9356 25.2363 14.1465C24.9829 14.3399 24.9011 14.3333 24.8831 14.3333V16.3333C25.5141 16.3333 26.0181 16.0656 26.4495 15.7365C26.8577 15.4251 27.3041 14.9756 27.8065 14.4732L26.3924 13.059ZM21.9596 14.4732C22.462 14.9756 22.9084 15.4251 23.3167 15.7365C23.748 16.0656 24.2519 16.3333 24.8831 16.3333V14.3333C24.8651 14.3333 24.7832 14.3399 24.5299 14.1465C24.2533 13.9356 23.9161 13.6015 23.3737 13.059L21.9596 14.4732ZM27.8065 14.4732C28.3089 13.9708 28.7584 13.5244 29.0699 13.1161C29.3989 12.6848 29.6667 12.1809 29.6667 11.5497H27.6667C27.6667 11.5677 27.6732 11.6496 27.4799 11.903C27.2689 12.1794 26.9348 12.5166 26.3924 13.059L27.8065 14.4732ZM26.3924 10.0404C26.9348 10.5828 27.2689 10.92 27.4799 11.1965C27.6732 11.4499 27.6667 11.5317 27.6667 11.5497H29.6667C29.6667 10.9186 29.3989 10.4146 29.0699 9.98332C28.7584 9.57509 28.3089 9.12863 27.8065 8.62622L26.3924 10.0404Z" fill="white"/>
<path d="M14.4732 21.9596L10.0404 17.5268L8.62622 18.9409L13.059 23.3737L14.4732 21.9596ZM4.19345 23.3737L8.62622 27.8065L10.0404 26.3924L5.60766 21.9596L4.19345 23.3737ZM4.19345 17.5268C3.69102 18.0292 3.24158 18.4756 2.93012 18.8839C2.60104 19.3152 2.33333 19.8192 2.33333 20.4503H4.33333C4.33333 20.4323 4.32682 20.3504 4.52015 20.0971C4.7311 19.8205 5.06526 19.4833 5.60766 18.9409L4.19345 17.5268ZM5.60766 21.9596C5.06526 21.4172 4.7311 21.08 4.52015 20.8035C4.32682 20.5501 4.33333 20.4683 4.33333 20.4503H2.33333C2.33333 21.0815 2.60104 21.5853 2.93012 22.0167C3.24158 22.4249 3.69102 22.8713 4.19345 23.3737L5.60766 21.9596ZM10.0404 17.5268C9.53802 17.0244 9.09157 16.5749 8.68334 16.2635C8.25205 15.9344 7.74808 15.6667 7.11694 15.6667V17.6667C7.13497 17.6667 7.21678 17.6601 7.47018 17.8535C7.74666 18.0644 8.08382 18.3985 8.62622 18.9409L10.0404 17.5268ZM5.60766 18.9409C6.15005 18.3985 6.48722 18.0644 6.76369 17.8535C7.01709 17.6601 7.09892 17.6667 7.11694 17.6667V15.6667C6.4858 15.6667 5.98183 15.9344 5.55053 16.2635C5.1423 16.5749 4.69586 17.0244 4.19345 17.5268L5.60766 18.9409ZM14.4732 27.8065C14.9756 27.3041 15.4251 26.8577 15.7365 26.4495C16.0656 26.0181 16.3333 25.5141 16.3333 24.8831H14.3333C14.3333 24.9011 14.3399 24.9829 14.1465 25.2363C13.9356 25.5128 13.6015 25.85 13.059 26.3924L14.4732 27.8065ZM13.059 23.3737C13.6015 23.9161 13.9356 24.2533 14.1465 24.5299C14.3399 24.7832 14.3333 24.8651 14.3333 24.8831H16.3333C16.3333 24.2519 16.0656 23.748 15.7365 23.3167C15.4251 22.9084 14.9756 22.462 14.4732 21.9596L13.059 23.3737ZM13.059 26.3924C12.5166 26.9348 12.1794 27.2689 11.903 27.4799C11.6496 27.6732 11.5677 27.6667 11.5497 27.6667V29.6667C12.1809 29.6667 12.6848 29.3989 13.1161 29.0699C13.5244 28.7584 13.9708 28.3089 14.4732 27.8065L13.059 26.3924ZM8.62622 27.8065C9.12863 28.3089 9.57509 28.7584 9.98332 29.0699C10.4146 29.3989 10.9186 29.6667 11.5497 29.6667V27.6667C11.5317 27.6667 11.4499 27.6732 11.1965 27.4799C10.92 27.2689 10.5828 26.9348 10.0404 26.3924L8.62622 27.8065Z" fill="white"/>
</svg>
