<svg width="32" height="32" viewBox="0 0 32 32" fill="none" xmlns="http://www.w3.org/2000/svg">
<path d="M2.67767 21.0789C2.97486 16.4215 3.84983 13.0132 4.59127 11.0335C4.96559 10.034 5.77091 9.28971 6.80194 9.04028C12.5353 7.65324 19.4648 7.65324 25.1981 9.04028C26.2292 9.28971 27.0345 10.034 27.4088 11.0335C28.1503 13.0132 29.0252 16.4215 29.3224 21.0789C29.5001 23.8652 27.4864 25.4004 25.2572 26.5233C23.8373 27.2385 22.7455 25.1276 22.0207 23.4937C21.6247 22.6011 20.7556 22.0475 19.7708 22.0475H12.2293C11.2444 22.0475 10.3754 22.6011 9.97942 23.4937C9.25452 25.1276 8.16267 27.2385 6.74282 26.5233C4.5362 25.4117 2.49846 23.8876 2.67767 21.0789Z" stroke="white" stroke-width="1.5" stroke-linecap="round" stroke-linejoin="round"/>
<path d="M6.66666 6.00001L9.2838 5.33334M25.3333 6.00001L22.6667 5.33334" stroke="white" stroke-width="1.5" stroke-linecap="round" stroke-linejoin="round"/>
<path d="M12 17.3333L10 15.3333M10 15.3333L8 13.3333M10 15.3333L8 17.3333M10 15.3333L12 13.3333" stroke="white" stroke-width="1.5" stroke-linecap="round"/>
<path d="M21.3175 13.3333H21.3295" stroke="white" stroke-width="2" stroke-linecap="round" stroke-linejoin="round"/>
<path d="M23.9841 17.3333H23.9961" stroke="white" stroke-width="2" stroke-linecap="round" stroke-linejoin="round"/>
</svg>
