<svg width="32" height="32" viewBox="0 0 32 32" fill="none" xmlns="http://www.w3.org/2000/svg">
<path d="M26 25.3333C27.841 25.3333 29.3334 23.841 29.3334 22C29.3334 20.1591 27.841 18.6667 26 18.6667C24.1591 18.6667 22.6667 20.1591 22.6667 22C22.6667 23.841 24.1591 25.3333 26 25.3333Z" stroke="white" stroke-width="3"/>
<path d="M6.00002 25.3333C7.84097 25.3333 9.33335 23.841 9.33335 22C9.33335 20.1591 7.84097 18.6667 6.00002 18.6667C4.15907 18.6667 2.66669 20.1591 2.66669 22C2.66669 23.841 4.15907 25.3333 6.00002 25.3333Z" stroke="white" stroke-width="3"/>
<path d="M26.9798 10.4928C28.6884 12.572 29.282 14.5489 29.3326 15.5943C28.4392 15.1857 27.4362 14.9565 26.3762 14.9565C23.1159 14.9565 20.1892 17.1244 19.4903 20.0123C19.3232 20.7027 19.2398 21.0479 19.0583 21.1905C18.877 21.3333 18.5843 21.3333 17.9992 21.3333H14.1608C13.5712 21.3333 13.2765 21.3333 13.0943 21.1887C12.9122 21.0439 12.8324 20.6999 12.6729 20.0117C12.0119 17.1611 9.32897 14.6832 6.53598 14.8931C6.25454 14.9143 6.11382 14.9248 6.01728 14.9033C5.92074 14.8817 5.82354 14.8269 5.62916 14.7171C5.06798 14.4001 4.49417 14.0992 3.94393 13.7636C3.17734 13.296 2.69756 12.474 2.6674 11.5766C2.65024 11.0658 2.94398 10.5582 3.53737 10.6978L12.0983 12.7125C12.7414 12.8638 13.0629 12.9395 13.3392 12.888C13.6155 12.8365 13.9542 12.6048 14.6316 12.1415C16.3494 10.9669 19.0716 9.8574 21.7854 10.8376C22.5282 11.106 22.8996 11.2401 23.1112 11.2468C23.3228 11.2536 23.633 11.1633 24.2532 10.9828C25.2575 10.6905 26.2028 10.5388 26.9798 10.4928ZM26.9798 10.4928C25.9088 9.18948 24.3996 7.84603 22.3115 6.66667" stroke="white" stroke-width="3" stroke-linecap="round" stroke-linejoin="round"/>
</svg>
