<svg width="32" height="32" viewBox="0 0 32 32" fill="none" xmlns="http://www.w3.org/2000/svg">
<path d="M4.0822 19.2551L4.56918 16.398C5.14476 13.0211 5.43254 11.3327 6.5722 10.333C7.71186 9.33334 9.34896 9.33334 12.6231 9.33334H19.3769C22.6511 9.33334 24.2881 9.33334 25.4279 10.333C26.5675 11.3327 26.8552 13.0211 27.4308 16.398L27.9179 19.2551C28.7143 23.928 29.1125 26.2644 27.8863 27.7988C26.66 29.3333 24.3945 29.3333 19.8639 29.3333H12.1361C7.60542 29.3333 5.34006 29.3333 4.11378 27.7988C2.8875 26.2644 3.28574 23.928 4.0822 19.2551Z" stroke="white" stroke-width="1.5"/>
<path d="M10 12L10.2867 7.98643C10.5008 4.989 12.9949 2.66666 16 2.66666C19.0051 2.66666 21.4992 4.989 21.7133 7.98643L22 12" stroke="white" stroke-width="1.5" stroke-linecap="round"/>
</svg>
