<svg width="32" height="32" viewBox="0 0 32 32" fill="none" xmlns="http://www.w3.org/2000/svg">
<path d="M8 22.6667V26.6667M24 22.6667V26.6667" stroke="white" stroke-width="1.5" stroke-linecap="round" stroke-linejoin="round"/>
<path d="M16 5.33333V18.6667" stroke="white" stroke-width="1.5" stroke-linecap="round" stroke-linejoin="round"/>
<path d="M26.6667 12C26.6667 9.50769 26.6667 8.26153 26.1308 7.33333C25.7797 6.72525 25.2748 6.2203 24.6667 5.86922C23.7384 5.33333 22.4923 5.33333 20 5.33333H12C9.5077 5.33333 8.26154 5.33333 7.33334 5.86922C6.72526 6.2203 6.22031 6.72525 5.86923 7.33333C5.33334 8.26153 5.33334 9.50769 5.33334 12" stroke="white" stroke-width="1.5" stroke-linecap="round" stroke-linejoin="round"/>
<path d="M26.6667 12C25.1939 12 24 13.1939 24 14.6667V17.3333C24 18.4364 23.7697 18.6667 22.6667 18.6667H9.33333C8.23022 18.6667 8 18.4364 8 17.3333V14.6667C8 13.1939 6.80609 12 5.33333 12C3.86057 12 2.66666 13.1939 2.66666 14.6667C2.66666 15.6537 3.20293 16.5155 4 16.9765V17.3333C4 19.8475 4 21.1045 4.78105 21.8856C5.56209 22.6667 6.81917 22.6667 9.33333 22.6667H22.6667C25.1808 22.6667 26.4379 22.6667 27.2189 21.8856C28 21.1045 28 19.8475 28 17.3333V16.9765C28.7971 16.5155 29.3333 15.6537 29.3333 14.6667C29.3333 13.1939 28.1395 12 26.6667 12Z" stroke="white" stroke-width="1.5" stroke-linejoin="round"/>
</svg>
