<svg width="35" height="36" viewBox="0 0 35 36" fill="none" xmlns="http://www.w3.org/2000/svg">
<path d="M31.9666 17.4492C31.9666 25.0066 25.5613 31.134 17.662 31.134C16.7332 31.1353 15.807 31.0493 14.8947 30.8781C14.238 30.7546 13.9096 30.693 13.6804 30.728C13.4511 30.763 13.1263 30.9357 12.4766 31.2813C10.6387 32.2587 8.49556 32.6039 6.4345 32.2205C7.21786 31.257 7.75287 30.1009 7.98894 28.8615C8.13198 28.1034 7.77754 27.367 7.24668 26.8279C4.83556 24.3795 3.35742 21.0803 3.35742 17.4492C3.35742 9.89188 9.76271 3.7644 17.662 3.7644C25.5613 3.7644 31.9666 9.89188 31.9666 17.4492Z" fill="white" stroke="white" stroke-width="1.5" stroke-linejoin="round"/>
<path d="M17.6549 18.0691H17.6677M23.3703 18.0691H23.3831M11.9395 18.0691H11.9523" stroke="#F25D07" stroke-width="2" stroke-linecap="round" stroke-linejoin="round"/>
</svg>
