<svg width="114" height="92" viewBox="0 0 114 92" fill="none" xmlns="http://www.w3.org/2000/svg">
<path d="M9.26534 0.322258C6.06612 0.931633 2.66378 3.54687 1.31807 6.46679C0.0739313 9.10741 0.099322 8.54882 0.175494 42.9531L0.251666 75.3262L0.83565 76.7734C2.18135 80.0996 4.79659 82.6133 7.89424 83.5781C9.54463 84.0859 10.0778 84.0859 41.613 84.0859C72.8942 84.0859 73.656 84.0605 74.4431 83.5781C75.3825 83.0195 75.9665 82.207 76.2966 81.0137C76.8298 79.1602 75.4079 76.7988 73.3767 76.2402C72.6657 76.0371 63.0935 75.9609 41.4353 75.9609C12.7185 75.9609 10.4333 75.9355 9.74776 75.5293C8.17354 74.5898 8.24971 76.5449 8.24971 42.0137C8.24971 10.9355 8.24971 10.5801 8.75753 9.74218C9.77315 8.0664 6.98018 8.16796 51.1599 8.16796C94.7556 8.16796 92.3435 8.09179 93.5114 9.56445L94.07 10.2754V28.3281C94.0954 38.2559 94.197 46.8633 94.2985 47.4727C94.654 49.3008 96.5075 50.8242 98.3864 50.8242C99.529 50.8242 101.052 49.9609 101.662 48.9707C102.195 48.1074 102.195 47.9551 102.195 28.7852C102.195 10.8086 102.17 9.38671 101.738 7.99023C100.875 5.27343 98.8689 2.83593 96.3552 1.46484C93.6638 -0.00782013 95.2634 0.0429611 51.0329 0.0683517C28.6892 0.0937424 9.9001 0.195305 9.26534 0.322258Z" fill="black" fill-opacity="0.25"/>
<path d="M68.4505 15.1757C66.2669 15.7597 64.2102 17.0038 62.636 18.705C55.6028 26.1952 60.3255 38.3066 70.5833 39.0683C76.8801 39.5507 82.5676 34.955 83.4817 28.6074C84.7005 20.2031 76.6262 12.9667 68.4505 15.1757ZM73.8333 23.7324C76.1438 25.4843 76.0423 28.582 73.6555 30.3593C72.6653 31.0956 70.2786 31.0956 69.263 30.3593C67.0032 28.6835 66.7493 25.8144 68.7298 23.9863C70.1008 22.6913 72.3352 22.5898 73.8333 23.7324Z" fill="black" fill-opacity="0.25"/>
<path d="M36.4329 25.2051C36.0775 25.332 35.5443 25.6875 35.265 25.9668C34.9603 26.2461 29.3236 34.5742 22.7474 44.4512C14.1654 57.3242 10.7376 62.6816 10.6107 63.3418C10.2298 65.7031 12.1595 67.9375 14.5462 67.9375C16.8568 67.9121 16.5775 68.2676 27.5462 51.8398C33.1322 43.4863 37.804 36.5801 37.931 36.5039C38.0579 36.4277 42.5521 42.5469 47.9349 50.1387C54.0033 58.6953 57.9896 64.1035 58.5228 64.459C59.4622 65.1191 61.3411 65.2461 62.4583 64.7383C62.8138 64.5859 65.6322 61.666 68.7044 58.2383C71.8021 54.8359 74.4173 52.1445 74.5189 52.2715C74.6204 52.373 75.9408 54.1758 77.4388 56.2832C80.6634 60.7773 81.2474 61.4375 82.3138 61.8945C85.3861 63.2148 88.7376 60.1426 87.6458 57.0195C87.2396 55.8516 78.7337 43.9941 77.3372 42.6738C76.0677 41.4551 74.722 41.2012 73.1986 41.8867C72.3353 42.2422 70.888 43.6895 66.6732 48.3613C63.7025 51.6875 61.1888 54.3789 61.0872 54.3789C60.9857 54.3789 56.39 48.0313 50.8802 40.2617C45.3704 32.4922 40.5462 25.916 40.14 25.6113C39.3021 25.0273 37.3724 24.7988 36.4329 25.2051Z" fill="black" fill-opacity="0.25"/>
<path d="M96.3049 58.1874C95.7971 58.4667 95.1115 59.1015 94.7814 59.6347C94.1974 60.5995 94.1974 60.7011 94.1213 69.08L94.0451 77.5351L91.4553 74.996C88.5099 72.1269 87.4689 71.5937 85.717 72.1015C83.2033 72.8632 82.0353 75.2499 83.0002 77.5859C83.2033 78.0683 86.1232 81.2421 89.7541 84.9492C98.4885 93.8105 97.9299 93.7089 104.074 87.6659C110.651 81.1913 113.57 77.9413 113.748 76.8749C114.154 74.7421 112.961 72.7617 110.879 72.1523C109.026 71.5683 108.061 72.0507 104.938 75.1484L102.195 77.8398V69.08C102.195 60.8534 102.17 60.2949 101.688 59.6093C100.545 57.832 98.1584 57.2226 96.3049 58.1874Z" fill="black" fill-opacity="0.25"/>
</svg>
