<svg width="34" height="35" viewBox="0 0 34 35" fill="none" xmlns="http://www.w3.org/2000/svg">
<path d="M30.6873 15.7778C31.118 16.3969 31.3333 16.7065 31.3333 17.1646C31.3333 17.6227 31.118 17.9323 30.6873 18.5513C28.752 21.3329 23.8097 27.3292 17.1667 27.3292C10.5236 27.3292 5.58131 21.3329 3.64606 18.5513C3.21535 17.9323 3 17.6227 3 17.1646C3 16.7065 3.21535 16.3969 3.64606 15.7778C5.58131 12.9962 10.5236 7 17.1667 7C23.8097 7 28.752 12.9962 30.6873 15.7778Z" fill="#F25D07" stroke="#F25D07" stroke-width="3"/>
<path d="M21.5 17.3562C21.5 14.9503 19.5973 13 17.25 13C14.9027 13 13 14.9503 13 17.3562C13 19.7622 14.9027 21.7125 17.25 21.7125C19.5973 21.7125 21.5 19.7622 21.5 17.3562Z" fill="white" stroke="white" stroke-width="3"/>
<rect x="21.9184" y="1.65515" width="3.00371" height="31.5175" transform="rotate(22.899 21.9184 1.65515)" fill="white" stroke="#F25D07"/>
</svg>
