<svg width="34" height="35" viewBox="0 0 34 35" fill="none" xmlns="http://www.w3.org/2000/svg">
<path d="M30.5203 18.9424C30.951 19.5614 31.1663 19.871 31.1663 20.3291C31.1663 20.7873 30.951 21.0968 30.5203 21.7159C28.585 24.4975 23.6427 30.4937 16.9997 30.4937C10.3566 30.4937 5.41432 24.4975 3.47906 21.7159C3.04836 21.0968 2.83301 20.7873 2.83301 20.3291C2.83301 19.871 3.04836 19.5614 3.47906 18.9424C5.41432 16.1608 10.3566 10.1646 16.9997 10.1646C23.6427 10.1646 28.585 16.1608 30.5203 18.9424Z" fill="#F25D07" stroke="#F25D07" stroke-width="3"/>
<path d="M21.25 20.3292C21.25 17.9232 19.3473 15.9729 17 15.9729C14.6527 15.9729 12.75 17.9232 12.75 20.3292C12.75 22.7351 14.6527 24.6854 17 24.6854C19.3473 24.6854 21.25 22.7351 21.25 20.3292Z" fill="white" stroke="white" stroke-width="3"/>
</svg>
