<svg width="30" height="30" viewBox="0 0 30 30" fill="none" xmlns="http://www.w3.org/2000/svg">
<path d="M29 15C29 7.26801 22.7319 1 15 1C7.26801 1 1 7.26801 1 15C1 22.7319 7.26801 29 15 29C22.7319 29 29 22.7319 29 15Z" stroke="" stroke-width="1.5" stroke-linejoin="round"/>
<path d="M17.6148 8.69864C19.0635 11.0316 18.3515 14.0987 16.0282 15.55C13.7049 17.0013 10.6465 16.2898 9.19775 13.9568C7.74905 11.6238 8.46112 8.55677 10.7844 7.10543C13.1076 5.6541 16.1661 6.36568 17.6148 8.69864Z" stroke="" stroke-width="2"/>
<rect width="2.56041" height="8.33232" rx="1.2802" transform="matrix(0.848112 -0.529817 0.527535 0.849533 15.1924 15.6333)" fill=""/>
</svg>
